<?xml version="1.0" encoding="UTF-8"?>
<svg xmlns="http://www.w3.org/2000/svg" viewBox="0 0 56.36 71.44">
  <g id="_лой_1" data-name="Слой 1"/>
  <g id="_лой_2" data-name="Слой 2">
    <g id="_лой_1-2" data-name="Слой 1">
      <g>
        <path d="M9.93,55.28h-3.41v.9h2.71c0,1-.1,1.71-.4,1.71h-2.31v.9h3.41v1.91H4.01v-7.22h5.92v1.81h0Z" style="fill: #004993;"/>
        <path d="M14.55,55.38c-.1,1.4-.4,2.61-.8,3.31h1.71v-3.31h-.9Zm2.01,6.42v-1.1h-3.71v1.1h-2.21v-3.11s.1,0,.5-.1c.5-.2,.9-.8,1.1-1.71,.3-1.2,.4-2.51,.4-3.41h5.32v5.32h.9v3.01h-2.31Z" style="fill: #004993; fill-rule: evenodd;"/>
        <path d="M24.88,60.7v-3.71s-1.61,2.11-1.91,2.71c-.2,.4-.6,1-1.3,1h-1.81v-7.22h2.31v4.31s2.11-3.11,2.61-3.81c.3-.4,.8-.5,1-.5h1.5v7.22h-2.41Z" style="fill: #004993; fill-rule: evenodd;"/>
        <polygon points="31 55.99 33.31 55.99 33.31 53.48 35.82 53.48 35.82 60.7 33.21 60.7 33.21 57.99 31 57.99 31 60.7 28.49 60.7 28.49 53.48 31 53.48 31 55.99 31 55.99" style="fill: #004993; fill-rule: evenodd;"/>
        <path d="M39.73,57.69h1.51l-.7-2.61-.8,2.61h0Zm5.12,3.01h-2.71l-.5-1.5h-2.21l-.4,1.5h-2.81l2.61-7.22h3.31l2.71,7.22h0Z" style="fill: #004993; fill-rule: evenodd;"/>
        <path d="M48.56,54.98c-.2,0-.5,0-.7,.2-.2,.1-.3,.3-.3,.5,0,.3,.1,.5,.3,.6,.2,.1,.5,.2,.7,.2h.7v-1.51h-.7Zm.6,5.72v-2.81c-.3,0-.7,.1-.8,.4-.1,.3-.6,1.4-.7,1.81-.2,.5-.3,.6-.6,.6h-2.41l.7-1.61c.4-.9,.7-1.2,1-1.5,.2-.2,.7-.4,.7-.4-.2,0-.8-.1-1.2-.4-.5-.4-.7-.8-.7-1.4,0-.4,.1-.8,.6-1.3,.4-.3,1-.6,2.01-.6h3.91v7.22h-2.51Z" style="fill: #004993; fill-rule: evenodd;"/>
        <path d="M48.56,54.98c-.2,0-.5,0-.7,.2-.2,.1-.3,.3-.3,.5,0,.3,.1,.5,.3,.6,.2,.1,.5,.2,.7,.2h.7v-1.51h-.7Zm.6,5.72v-2.81c-.3,0-.7,.1-.8,.4-.1,.3-.6,1.4-.7,1.81-.2,.5-.3,.6-.6,.6h-2.41l.7-1.61c.4-.9,.7-1.2,1-1.5,.2-.2,.7-.4,.7-.4-.2,0-.8-.1-1.2-.4-.5-.4-.7-.8-.7-1.4,0-.4,.1-.8,.6-1.3,.4-.3,1-.6,2.01-.6h3.91v7.22h-2.51Z" style="fill: #004993; fill-rule: evenodd;"/>
        <path d="M40.93,71.34v-4.21s-1.71,2.51-2.11,3.11c-.5,.8-.8,1.1-1.51,1.1h-1.91v-7.83h2.61v3.21l-.1,1.2s2.41-3.11,2.81-3.81c.3-.6,.9-.6,1.2-.6h1.61l-.1,7.83h-2.51Z" style="fill: #004993;"/>
        <path d="M48.26,65.12c-.2,0-.5,.1-.7,.2-.2,.2-.3,.3-.3,.6s.1,.5,.2,.6c.3,.2,.6,.2,.9,.2h.7v-1.61h-.8Zm.7,6.22v-3.01c-.3,0-.7,.1-.9,.4-.1,.3-.6,1.5-.8,2.01-.2,.5-.3,.6-.6,.6h-2.61l.8-1.71c.4-1.1,.7-1.3,1-1.61,.3-.3,.8-.5,.8-.5-.2,0-.8-.1-1.3-.4-.6-.4-.8-.9-.7-1.5,0-.4,0-.9,.6-1.5,.4-.3,1.1-.6,2.11-.6h4.31v7.83h-2.71Z" style="fill: #004993; fill-rule: evenodd;"/>
        <path d="M6.72,67.22h.7c.7,0,.9-.6,.9-.9,0-.4-.1-1-.9-1h-.7v1.91h0Zm.5-3.71c.8,0,2.11,0,2.81,.7,.5,.4,.9,1,.9,2.11,0,1.6-1.2,2.81-2.81,2.81h-1.4v2.21h-2.71v-7.83h3.21Z" style="fill: #004993; fill-rule: evenodd;"/>
        <path d="M15.55,65.42c-1.2,0-1.3,1.3-1.3,2.01s.1,1.91,1.3,1.91c1.1,0,1.3-1.1,1.3-1.81-.1-1.4-.7-2.11-1.3-2.11h0Zm3.01-.8c.7,.8,1.1,1.81,1.1,2.81,0,1.91-1.1,4.01-4.21,4.01-.7,0-1.81-.1-2.81-.9-.8-.8-1.2-1.91-1.2-3.11-.1-2.41,1.5-4.01,4.11-4.01,1.2,0,2.31,.3,3.11,1.2h-.1Z" style="fill: #004993; fill-rule: evenodd;"/>
        <path d="M26.89,65.82c-.3-.1-1-.2-1.61-.2-1.3,0-2.11,.8-2.11,1.81s.5,1.81,2.01,1.81c.8,0,1.5-.1,1.71-.1l.3,2.11c-1.3,.2-2.41,.2-2.61,.2-2.51,0-4.41-1.5-4.41-4.01,.1-2.51,1.61-4.01,4.51-4.01,1.1,0,2.11,.1,2.61,.3l-.4,2.11h0Z" style="fill: #004993; fill-rule: evenodd;"/>
        <path d="M34.21,65.82c-.3-.1-1-.2-1.71-.2-1.3,0-2.11,.8-2.11,1.81s.5,1.81,2.11,1.81c.7,0,1.4-.1,1.71-.1l.2,2.11c-1.3,.2-2.31,.2-2.51,.2-2.61,0-4.41-1.5-4.41-4.01s1.61-4.01,4.41-4.01c1.1,0,2.21,.1,2.71,.3l-.4,2.11h0Z" style="fill: #004993; fill-rule: evenodd;"/>
        <path d="M55.08,28.7c-1.1-4.51-5.02-11.04-17.06-11.04-2.51,0-9.13,.7-10.33,.7,.1-.4,1.3-3.81,1.51-4.31-.8-.4-2.91-.8-5.92-.9-7.02-.2-15.55,2.81-20.87,6.72-.6,1.81-1.71,4.62-2.41,6.32,5.52-2.91,13.64-5.92,19.87-6.52,4.21-.4,5.82,.4,6.32,.7,.5,.2-3.61,1.61-3.51,3.21,0,2.01,8.43-.2,13.95,0,9.53,.3,13.75,3.61,15.25,8.33,1.91,5.82-1.51,11.44-5.72,13.54,5.22-1.3,10.84-8.83,8.93-16.75h0Z" style="fill: #e20613; fill-rule: evenodd;"/>
        <path d="M23.28,13.15c3.01,.1,5.12,.5,5.92,.9-.2,.5-1.4,3.91-1.51,4.31,1.2,0,7.83-.7,10.33-.7,12.04,0,15.95,6.52,17.06,11.04,.3,1.3,.4,2.51,.4,3.71,.7-3.31,.7-7.32,.3-9.53-.7-4.52-4.72-10.84-15.75-11.04-2.51,0-9.13,.7-10.23,.7,.1-.4,1.3-3.81,1.4-4.31-.7-.4-2.51-1.1-5.52-1.2-7.12-.1-15.65,2.81-20.97,6.72-.6,1.81-1.61,4.41-2.31,6.12,5.32-3.91,13.85-6.92,20.87-6.72h0Z" style="fill: #009ee2; fill-rule: evenodd;"/>
        <path d="M55.58,15.75c-1-3.61-4.92-9.43-13.54-9.63-2.51,0-8.83,.5-10.23,.6,.1-.3,1.1-3.31,1.3-3.81-.6-.8-2.41-1.5-5.42-1.61-7.12-.2-15.55,3.01-20.87,7.02-.6,1.81-2.11,5.62-2.11,5.42,5.32-3.91,13.85-6.82,20.97-6.72,3.01,.1,4.82,.8,5.52,1.2-.1,.5-1.3,3.91-1.4,4.31,1.1,0,7.73-.7,10.23-.7,11.04,.2,15.05,6.52,15.75,11.04,.2,1.1,.3,2.81,.2,4.62,.6-3.81,.5-8.03-.4-11.74h0Z" style="fill: #fff; fill-rule: evenodd;"/>
        <path d="M55.38,14.15c-.8-3.31-4.62-9.33-13.24-9.33-2.91,0-8.33,.4-9.93,.6-.2,.7-.4,1.2-.4,1.3,1.4-.1,7.73-.6,10.23-.6,8.63,.2,12.54,6.02,13.54,9.63,.2,.9,.3,1.71,.5,2.61-.2-1.71-.4-3.21-.7-4.21h0ZM33.11,2.91c.2-.5,.3-1,.4-1.2C32.81,1.11,30.9,.1,28.09,0,21.07-.1,12.64,3.11,7.32,7.03c-.1,.4-.3,.8-.5,1.3C12.14,4.42,20.67,1.11,27.69,1.31c2.91,.1,4.72,.8,5.42,1.61h0Z" style="fill: #004993; fill-rule: evenodd;"/>
        <path d="M15.95,25.39c-2.51,.1-5.12,1.5-7.02,3.71-1.51,1.91-2.41,4.11-2.41,6.42,0,.5,.1,.9,.1,1.4l.1,.4,.4,.2c.3,.1,.5,.3,.6,.4l-.4,.8-1.1,2.41c-.5,1.3-.8,2.81-.8,4.41,0,1.5,.3,3.11,1.3,4.31l.2,.4h6.22l.1-.6c0-.2,.1-.4,.1-.6,0-.5-.1-1.2-.4-1.61-.3-.5-.6-.6-.8-.7-.1,0-.3-.2-.3-.5v-.1c.1-.4,.7-.9,1.91-1.4l.1-.1c.6,1,1.2,2.01,1.5,2.61l.6,1c.5,.8,1.2,1.51,2.01,1.91l.2,.1h6.52v-.9c0-1.61-.4-2.51-1.2-2.71l-.6-.1q-.7-.2-.8-.4v-.2c0-.3,.1-.8,.3-1.2,0,0,.1-.6,.2-1.1,.7-.2,1.5-.3,2.21-.3-.2,.9-.3,1.91-.3,2.71,0,.9,.1,1.61,.1,2.01v.1c.3,.7,1.4,1.71,2.51,2.01l.2,.1h6.52v-.9c-.2-1.81-.7-2.71-1.61-2.71s-1.4-.4-1.4-.5,.4-.7,1.71-1.91c.8,2.01,3.51,4.92,5.32,5.92l.1,.1h6.82l-.2-1c-.4-1.5-1.1-2.51-2.21-2.71-1.3-.2-1.71-.4-2.01-.9-.2-.2-.4-1.1-.6-1.81-.2-.8-.4-1.61-.6-2.21-.1-.3-.2-.5-.3-.7l.1,.2,.4-.1c1.2-.1,4.31-.8,5.42-2.01,.8,.1,1.91,.1,2.51-.2,.4-.2,1.1-1.1,1.2-1.61v-.1l.3-.1c.9-.6,2.01-2.01,2.01-2.81v-.1c0-.4-.2-.7-.6-.8l-.2-.1c-.7-.3-1.51-.6-2.31-.8-.3-1.4-2.21-2.11-3.81-2.71-.3-.6-.9-1.1-1.61-1.4-.7-.3-1.5-.2-2.11,.1-2.11-1-6.62-2.51-9.13-2.81l-.6-.1-.2,.6c-.1,.1-.3,.7-.8,.8-1.71,.2-3.51-.2-5.52-.6-2.31-.4-4.82-1-7.93-.9h0Z" style="fill: #fff; fill-rule: evenodd;"/>
        <path d="M48.36,36.32c1-.6,2.01-2.11,1.61-2.31-.8-.3-2.11-.9-3.11-1.1,.3-1-1-1.61-3.61-2.51-.2-1-1.81-2.11-3.11-1.1-1.81-1-6.72-2.61-9.23-2.91-.2,.4-.6,1.1-1.4,1.2-3.81,.6-7.63-1.61-13.44-1.4-4.51,.2-9.43,4.92-8.63,10.63,.6,.2,1.3,.8,1,1.51-.3,.7-.8,1.4-1.5,3.11-.6,1.71-1.5,5.42,.4,8.03h5.12c.1-.4,.1-1.81-.5-1.91-.5-.1-1-.8-.9-1.51,.2-.8,.9-1.4,2.41-2.11-.3-1.1-1-2.31-1.1-2.71,.6-.1,3.81,5.92,4.21,6.62,.5,.7,1.1,1.3,1.81,1.61h5.62c0-.6-.1-1.91-.7-2.11-.8-.2-1.71-.1-1.91-1-.2-.9,.4-2.01,.6-3.41,1.2-.4,3.01-.3,3.71-.4-.6,1.91-.4,4.51-.3,5.42,.1,.3,.9,1.1,2.01,1.51h5.62c0-.5-.2-2.01-.8-2.01-1.4-.1-2.21-.7-2.21-1.3,.1-.7,.9-1.5,2.11-2.61,.5-.4,1.91-2.31,2.51-2.01-.7,.5-1.1,1.5-1.51,2.21,.6,1.81,3.31,4.72,5.02,5.72h5.62c-.1-.6-.5-2.01-1.5-2.11-1.4-.3-2.11-.5-2.61-1.2-.4-.7-.7-3.01-1.2-4.31-.9-1.91-1-2.71-.1-3.21,.1,.3,.7,1.4,1,1.71,1.51-.2,4.72-1.2,5.12-2.11,1,.1,2.01,.1,2.51-.1,.1,0,.9-1,.7-1.2-.1-.1-.3-.1-.6-.1,.5-.1,1.1-.4,1.3-.5h0Z" style="fill: #004993; fill-rule: evenodd;"/>
        <path d="M45.75,33.81c-.3,0-1.3,.7-1.61,.7-.3-.3-1.2-1.61,1.61-1.3,.4,0,.1-.4-.2-.6-.6-.3-1.71-.7-3.11-1.1-.3-1.2-1.71-1.71-2.11-.3-1.61-.9-5.22-2.31-7.73-2.71-.3,.2-.4,1.2-2.11,1.5-2.11,.4-6.32-.9-11.14-1.5-4.82-.6-8.63,1.81-9.13,6.22,1.1-.2,3.41-.3,4.92,1.71,4.62,5.82,3.71,7.93,4.51,8.33,.9-2.01,2.31-6.52,.9-9.23,.5-.2,1.3,.5,2.11,1.2,.9,.9,2.41,1.61,3.71,1.5,.5-1.91,2.71-3.81,3.31-3.71-1.2,2.01-1.81,3.21-2.41,5.52-.9,2.81-.6,6.02,0,6.12,.2-.9,.6-2.61,2.01-4.92,2.21-3.51,6.42-6.52,9.53-5.82-.9,.2-1.61,1.1-1.81,1.5,1.2,.3,1.81,.8,2.31,1.4,1.1-1,3.21-.8,4.62-1.4,0-.4,.1-.9,.8-1,.9-.1,2.11,.3,2.91-.1,.3-.2,1-1,1-1.5-.3-.2-1.61-.5-2.91-.5h0Z" style="fill: #fff; fill-rule: evenodd;"/>
      </g>
    </g>
  </g>
</svg>