<?xml version="1.0" encoding="UTF-8"?>
<svg xmlns="http://www.w3.org/2000/svg" xmlns:xlink="http://www.w3.org/1999/xlink" viewBox="0 0 141.83 48.44">
  <defs>
    <style>
      .cls-1 {
        fill: #fff;
      }

      .cls-2 {
        isolation: isolate;
      }

      .cls-3 {
        fill: url(#_езымянный_градиент_24);
      }

      .cls-4 {
        fill: #e63739;
      }

      .cls-5 {
        mix-blend-mode: hard-light;
      }

      .cls-6 {
        fill: #1f79bc;
      }

      .cls-7 {
        fill: url(#_езымянный_градиент_9);
      }

      .cls-7, .cls-8 {
        mix-blend-mode: multiply;
      }

      .cls-9 {
        fill: url(#_езымянный_градиент_15);
      }

      .cls-10 {
        fill: #6f6f6e;
      }

      .cls-11 {
        fill: url(#_езымянный_градиент_27);
      }

      .cls-8 {
        fill: #c6c6c5;
        opacity: .43;
      }
    </style>
    <linearGradient id="_езымянный_градиент_15" data-name="Безымянный градиент 15" x1="-8.24" y1="18.74" x2="27.19" y2="26.91" gradientTransform="matrix(1, 0, 0, 1, 0, 0)" gradientUnits="userSpaceOnUse">
      <stop offset="0" stop-color="#35a8e0"/>
      <stop offset="1" stop-color="#1d70b7"/>
    </linearGradient>
    <linearGradient id="_езымянный_градиент_27" data-name="Безымянный градиент 27" x1=".75" y1="40.94" x2="15.29" y2="3.15" gradientTransform="matrix(1, 0, 0, 1, 0, 0)" gradientUnits="userSpaceOnUse">
      <stop offset="0" stop-color="#e20613"/>
      <stop offset=".1" stop-color="#dc0b19"/>
      <stop offset=".25" stop-color="#cd192b"/>
      <stop offset=".42" stop-color="#b43048"/>
      <stop offset=".61" stop-color="#915071"/>
      <stop offset=".8" stop-color="#667aa5"/>
      <stop offset="1" stop-color="#35a8e0"/>
    </linearGradient>
    <linearGradient id="_езымянный_градиент_24" data-name="Безымянный градиент 24" x1="17.96" y1="-1.93" x2="10.24" y2="32.19" gradientTransform="matrix(1, 0, 0, 1, 0, 0)" gradientUnits="userSpaceOnUse">
      <stop offset="0" stop-color="#35a8e0"/>
      <stop offset=".39" stop-color="#1f79bc"/>
      <stop offset=".51" stop-color="#1e75b7"/>
      <stop offset=".65" stop-color="#1c6caa"/>
      <stop offset=".8" stop-color="#1a5b94"/>
      <stop offset=".95" stop-color="#164575"/>
      <stop offset="1" stop-color="#153d6a"/>
    </linearGradient>
    <linearGradient id="_езымянный_градиент_9" data-name="Безымянный градиент 9" x1="15.22" y1="1.56" x2="8.41" y2="31.65" gradientTransform="matrix(1, 0, 0, 1, 0, 0)" gradientUnits="userSpaceOnUse">
      <stop offset="0" stop-color="#1f79bc"/>
      <stop offset="1" stop-color="#153d6a"/>
    </linearGradient>
  </defs>
  <g style="isolation: isolate;">
    <g id="_лой_1" data-name="Слой 1"/>
    <g id="_лой_2" data-name="Слой 2">
      <g id="_лой_1-2" data-name="Слой 1">
        <g>
          <g>
            <polygon points="31.16 23.38 16.75 15.58 22.56 0 16.94 0 15.82 2.97 12.36 2.97 9.18 11.49 0 6.53 5.97 20.08 1.1 33.08 6.77 33.08 7.88 30.1 7.88 30.1 10.38 30.1 13.84 37.95 31.16 23.38" style="fill: #fff;"/>
            <g>
              <g>
                <polygon points="0 6.53 31.16 23.38 13.84 37.95 0 6.53" style="fill: url(#_езымянный_градиент_15);"/>
                <g>
                  <polygon points="12.36 2.97 1.1 33.08 6.77 33.08 17.98 2.97 12.36 2.97" style="fill: url(#_езымянный_градиент_27);"/>
                  <polygon points="16.94 0 5.68 30.1 11.34 30.1 22.56 0 16.94 0" style="fill: url(#_езымянный_градиент_24);"/>
                  <polygon points="5.68 30.1 7.88 30.1 17.98 2.97 15.82 2.97 5.68 30.1" style="fill: url(#_езымянный_градиент_9); mix-blend-mode: multiply;"/>
                </g>
              </g>
              <polygon points="0 6.53 31.16 23.38 13.84 37.95 0 6.53" style="fill: #c6c6c5; mix-blend-mode: multiply; opacity: .43;"/>
            </g>
          </g>
          <g>
            <g>
              <g>
                <rect x="37.69" y=".14" width="38.75" height="6.24" style="fill: #e63739;"/>
                <g style="mix-blend-mode: hard-light;">
                  <path d="M41.56,5.25l-.23-.72h-1.4l-.24,.72h-.81l1.44-4.04h.61l1.44,4.04h-.81Zm-.92-2.85l-.5,1.47h.98l-.48-1.47Z" style="fill: #fff;"/>
                  <path d="M44.12,5.29c-.43,0-.79-.16-1.07-.44-.4-.41-.39-.91-.39-1.61s-.01-1.2,.39-1.61c.28-.28,.63-.44,1.07-.44,.74,0,1.32,.43,1.46,1.28h-.78c-.08-.32-.28-.57-.67-.57-.21,0-.38,.08-.49,.21-.15,.17-.19,.36-.19,1.14s.04,.97,.19,1.14c.11,.13,.28,.21,.49,.21,.39,0,.59-.25,.67-.57h.78c-.14,.85-.72,1.28-1.46,1.28Z" style="fill: #fff;"/>
                  <path d="M47.5,5.29c-.43,0-.79-.16-1.07-.44-.4-.41-.39-.91-.39-1.61s-.01-1.2,.39-1.61c.28-.28,.63-.44,1.07-.44,.74,0,1.32,.43,1.45,1.28h-.78c-.08-.32-.28-.57-.67-.57-.21,0-.38,.08-.49,.21-.15,.17-.19,.36-.19,1.14s.04,.97,.19,1.14c.11,.13,.28,.21,.49,.21,.39,0,.59-.25,.67-.57h.78c-.14,.85-.72,1.28-1.45,1.28Z" style="fill: #fff;"/>
                  <path d="M52.3,3.38c0,.53,0,1.06-.39,1.46-.28,.3-.64,.44-1.07,.44s-.79-.15-1.07-.44c-.38-.4-.39-1-.39-1.44v-.33c0-.81,.08-1.13,.39-1.45,.28-.29,.64-.44,1.07-.44s.79,.15,1.07,.44c.28,.29,.39,.68,.39,1.33v.43Zm-.97-1.28c-.12-.14-.29-.22-.49-.22s-.38,.07-.5,.22c-.18,.2-.19,.58-.19,1.08v.2c0,.42,0,.8,.19,.99,.13,.14,.3,.22,.5,.22s.37-.07,.49-.22c.16-.19,.19-.39,.19-1.21,0-.66-.04-.89-.19-1.06Z" style="fill: #fff;"/>
                  <path d="M55.69,5.67v-.42h-2.6V1.21h.77v3.34h1.34V1.21h.77v3.34h.46v1.12h-.74Z" style="fill: #fff;"/>
                  <path d="M59.27,5.25V2.66l-1.54,2.59h-.69V1.21h.77V3.8l1.54-2.59h.69V5.25h-.77Z" style="fill: #fff;"/>
                  <path d="M63.21,5.25l-.23-.72h-1.41l-.24,.72h-.81l1.44-4.04h.61l1.44,4.04h-.81Zm-.92-2.85l-.5,1.47h.98l-.48-1.47Z" style="fill: #fff;"/>
                  <path d="M67.11,5.67v-.42h-2.6V1.21h.77v3.34h1.34V1.21h.77v3.34h.46v1.12h-.74Z" style="fill: #fff;"/>
                  <path d="M70.69,5.25V2.66l-1.54,2.59h-.69V1.21h.77V3.8l1.54-2.59h.69V5.25h-.77Z" style="fill: #fff;"/>
                  <path d="M73.01,5.25h-.92l.82-1.68c-.42-.19-.68-.59-.68-1.1,0-.77,.54-1.26,1.3-1.26h1.53V5.25h-.77v-1.52h-.63l-.65,1.52Zm1.28-3.35h-.72c-.34,0-.57,.22-.57,.56s.23,.57,.57,.57h.72V1.9Z" style="fill: #fff;"/>
                </g>
              </g>
              <g>
                <path d="M44.44,24.23v-2.36h-6.63V11.21h1.97v8.8h3.41V11.21h1.97v8.8h1.18v4.22h-1.9Z" style="fill: #1f79bc;"/>
                <path d="M53.58,21.87v-6.84l-3.92,6.84h-1.76V11.21h1.97v6.82l3.92-6.82h1.76v10.66h-1.97Z" style="fill: #1f79bc;"/>
                <path d="M63.36,20.87v1.08h-1.97v-1.08c-2.59-.1-4.02-1.89-4.02-4.55s1.6-4.24,4.02-4.34v-.84h1.97v.84c2.42,.1,4.02,1.69,4.02,4.34s-1.43,4.44-4.02,4.55Zm-1.97-7.05c-1.4,.07-2.05,.97-2.05,2.59s.68,2.53,2.05,2.62v-5.21Zm1.97,5.21c1.37-.09,2.05-1.06,2.05-2.62s-.65-2.51-2.05-2.59v5.21Z" style="fill: #1f79bc;"/>
                <path d="M73.11,11.21c1.94,0,3.33,1.38,3.33,3.32s-1.37,3.32-3.33,3.32h-1.94v4.01h-1.97V11.21h3.91Zm-.1,4.77c.88,0,1.46-.57,1.46-1.45s-.58-1.47-1.46-1.47h-1.84v2.92h1.84Z" style="fill: #1f79bc;"/>
                <path d="M84.21,20.79c-.71,.78-1.63,1.17-2.72,1.17s-2.03-.4-2.73-1.17c-1.06-1.15-.99-2.92-.99-4.1v-.58c0-2.13,.21-2.98,.99-3.82,.71-.76,1.64-1.17,2.73-1.17s2.01,.4,2.72,1.17c.71,.76,1.01,1.78,1.01,3.5v.75c0,1.53,.07,3.07-1.01,4.25Zm-1.46-7.24c-.31-.37-.75-.57-1.26-.57s-.96,.19-1.27,.57c-.45,.52-.48,1.53-.48,2.84s-.06,2.57,.48,3.14c.34,.36,.76,.57,1.27,.57s.95-.19,1.26-.57c.41-.49,.5-1.02,.5-3.19,0-1.75-.1-2.33-.5-2.8Z" style="fill: #1f79bc;"/>
                <path d="M93.91,16.98c.44,.49,.62,1.09,.62,1.84,0,1.87-1.19,3.05-3.09,3.05h-4.22V11.21h4.05c1.9,0,3.12,1.14,3.12,2.93,0,1.02-.41,1.77-1.25,2.26,.4,.22,.55,.34,.77,.57Zm-2.79-1.45c.81,0,1.3-.46,1.3-1.23s-.5-1.23-1.3-1.23h-1.93v2.45h1.93Zm.13,4.49c.81,0,1.32-.51,1.32-1.32s-.51-1.3-1.32-1.3h-2.05v2.62h2.05Z" style="fill: #1f79bc;"/>
                <path d="M102.12,21.87l-.6-1.89h-3.58l-.61,1.89h-2.05l3.67-10.66h1.54l3.68,10.66h-2.05Zm-2.35-7.51l-1.27,3.88h2.51l-1.23-3.88Z" style="fill: #1f79bc;"/>
                <path d="M110.32,21.87v-4.01h-1.54l-1.73,4.01h-2.34l2.08-4.43c-1.08-.49-1.74-1.56-1.74-2.9,0-1.95,1.39-3.32,3.33-3.32h3.91v10.66h-1.97Zm0-8.8h-1.84c-.88,0-1.46,.58-1.46,1.47s.58,1.45,1.46,1.45h1.84v-2.92Z" style="fill: #1f79bc;"/>
                <path d="M123.87,16.02s.03,.85,0,.94c0,1.21,.01,2.75-.99,3.83-.38,.42-.85,.73-1.37,.93-.41,.16-.88,.24-1.37,.24-1.19,0-1.91-.37-2.78-1.23l1.23-1.33c.33,.34,1.11,.7,1.56,.7,.52,0,.95-.19,1.26-.55,.41-.48,.47-1.21,.5-2.13h-2.93v-1.81h2.92c-.03-1-.14-1.35-.28-1.69-.23-.58-.81-.94-1.46-.94s-1.01,.19-1.53,.73l-1.23-1.39c.84-.82,1.6-1.2,2.76-1.2,2.89,0,3.73,2.26,3.73,4.89Z" style="fill: #1f79bc;"/>
                <path d="M129.81,11.21c1.94,0,3.33,1.38,3.33,3.32s-1.37,3.32-3.33,3.32h-1.94v4.01h-1.97V11.21h3.91Zm-.1,4.77c.88,0,1.46-.57,1.46-1.45s-.58-1.47-1.46-1.47h-1.84v2.92h1.84Z" style="fill: #1f79bc;"/>
                <path d="M139.77,21.87l-.6-1.89h-3.58l-.61,1.89h-2.05l3.67-10.66h1.54l3.68,10.66h-2.05Zm-2.35-7.51l-1.27,3.88h2.51l-1.23-3.88Z" style="fill: #1f79bc;"/>
                <path d="M41.67,26.83v8.8h-1.97v-8.8h-2.64v-1.86h7.24v1.86h-2.64Z" style="fill: #1f79bc;"/>
                <path d="M49.81,24.97c1.94,0,3.33,1.38,3.33,3.32s-1.37,3.32-3.33,3.32h-1.94v4.01h-1.97v-10.66h3.91Zm-.1,4.77c.88,0,1.46-.57,1.46-1.45s-.58-1.47-1.46-1.47h-1.84v2.92h1.84Z" style="fill: #1f79bc;"/>
                <path d="M59.78,35.63l-.6-1.89h-3.58l-.61,1.89h-2.05l3.67-10.66h1.54l3.68,10.66h-2.05Zm-2.35-7.51l-1.27,3.88h2.51l-1.23-3.88Z" style="fill: #1f79bc;"/>
                <path d="M68.46,35.63v-4.46h-3.41v4.46h-1.97v-10.66h1.97v4.35h3.41v-4.35h1.97v10.66h-1.97Z" style="fill: #1f79bc;"/>
                <path d="M77.66,35.43c-.42,.18-.93,.28-1.47,.28-1.09,0-2.04-.4-2.75-1.17-.99-1.06-.99-2.47-.99-4.25v-.43c0-2.13,.21-2.98,.99-3.82,.71-.76,1.64-1.17,2.73-1.17,.55,0,1.05,.09,1.49,.28,.48,.21,.75,.39,1.3,.94l-1.3,1.38c-.55-.57-.91-.75-1.49-.75-.52,0-.95,.18-1.26,.55-.5,.58-.5,1.69-.5,2.71v.57c0,1.69,.1,2.27,.5,2.74,.31,.37,.72,.55,1.26,.55,.6,0,.94-.18,1.49-.75l1.3,1.38c-.55,.55-.82,.73-1.3,.94Z" style="fill: #1f79bc;"/>
                <path d="M86.13,35.63v-8.8h-3.41v8.8h-1.97v-10.66h7.35v10.66h-1.97Z" style="fill: #1f79bc;"/>
                <path d="M96.56,34.55c-.71,.78-1.63,1.17-2.72,1.17s-2.03-.4-2.73-1.17c-1.06-1.15-.99-2.92-.99-4.1v-.58c0-2.13,.21-2.98,.99-3.82,.71-.76,1.64-1.17,2.73-1.17s2.01,.4,2.72,1.17c.71,.76,1.01,1.78,1.01,3.5v.75c0,1.53,.07,3.07-1.01,4.25Zm-1.46-7.24c-.31-.37-.75-.57-1.26-.57s-.96,.19-1.27,.57c-.45,.52-.48,1.53-.48,2.84s-.06,2.57,.48,3.14c.34,.36,.76,.57,1.27,.57s.95-.19,1.26-.57c.41-.49,.5-1.02,.5-3.19,0-1.75-.1-2.33-.5-2.8Z" style="fill: #1f79bc;"/>
                <path d="M103.49,24.97c1.94,0,3.33,1.38,3.33,3.32s-1.37,3.32-3.33,3.32h-1.94v4.01h-1.97v-10.66h3.91Zm-.1,4.77c.88,0,1.46-.57,1.46-1.45s-.58-1.47-1.46-1.47h-1.84v2.92h1.84Z" style="fill: #1f79bc;"/>
                <path d="M112.34,26.83v8.8h-1.97v-8.8h-2.64v-1.86h7.24v1.86h-2.64Z" style="fill: #1f79bc;"/>
                <path d="M121.46,35.63l-.6-1.89h-3.58l-.61,1.89h-2.05l3.67-10.66h1.54l3.68,10.66h-2.05Zm-2.35-7.51l-1.27,3.88h2.51l-1.23-3.88Z" style="fill: #1f79bc;"/>
              </g>
            </g>
            <g>
              <path d="M39.26,43.43h-.91l-.21,.59h-.33l.87-2.29h.28l.85,2.29h-.33l-.21-.59Zm-.81-.26h.72l-.35-.98h0l-.36,.98Z" style="fill: #6f6f6e;"/>
              <path d="M41.85,43.29h0c0,.22-.08,.4-.24,.55-.16,.14-.38,.22-.65,.22s-.49-.09-.67-.27-.26-.42-.26-.7v-.41c0-.28,.09-.51,.26-.7,.17-.18,.39-.28,.67-.28s.49,.07,.65,.21c.16,.14,.24,.32,.23,.55h-.32c0-.15-.05-.28-.15-.37s-.24-.14-.42-.14-.33,.07-.43,.21c-.11,.14-.16,.31-.16,.52v.41c0,.21,.05,.38,.16,.52,.11,.14,.25,.21,.43,.21s.32-.05,.42-.14c.1-.09,.15-.22,.15-.38h.31Z" style="fill: #6f6f6e;"/>
              <path d="M44,43.29h0c0,.22-.08,.4-.24,.55-.16,.14-.38,.22-.65,.22s-.49-.09-.67-.27-.26-.42-.26-.7v-.41c0-.28,.09-.51,.26-.7,.17-.18,.39-.28,.67-.28s.49,.07,.65,.21c.16,.14,.24,.32,.23,.55h-.32c0-.15-.05-.28-.15-.37s-.24-.14-.42-.14-.33,.07-.43,.21c-.11,.14-.16,.31-.16,.52v.41c0,.21,.05,.38,.16,.52,.11,.14,.25,.21,.43,.21s.32-.05,.42-.14c.1-.09,.15-.22,.15-.38h.31Z" style="fill: #6f6f6e;"/>
              <path d="M46.26,43.08c0,.28-.09,.51-.27,.7-.18,.18-.42,.28-.71,.28s-.51-.09-.69-.28c-.18-.18-.26-.42-.26-.7v-.41c0-.28,.09-.51,.26-.7,.18-.19,.4-.28,.69-.28s.53,.09,.71,.28,.27,.42,.27,.7v.41Zm-.33-.41c0-.21-.06-.38-.18-.51-.12-.13-.28-.2-.48-.2-.19,0-.34,.07-.45,.2s-.17,.31-.17,.51v.41c0,.21,.06,.38,.17,.52s.26,.2,.45,.2c.2,0,.36-.07,.48-.2s.18-.31,.18-.52v-.41Z" style="fill: #6f6f6e;"/>
              <path d="M46.72,41.74h.33v2.04h1.17v-2.04h.33v2.03h.31v.81h-.33v-.56h-1.81v-2.29Z" style="fill: #6f6f6e;"/>
              <path d="M50.76,41.74h.33v2.29h-.33v-1.74h0l-1.16,1.74h-.33v-2.29h.33v1.74h.01l1.16-1.74Z" style="fill: #6f6f6e;"/>
              <path d="M52.92,43.43h-.91l-.21,.59h-.33l.87-2.29h.28l.85,2.29h-.33l-.21-.59Zm-.81-.26h.72l-.35-.98h0l-.36,.98Z" style="fill: #6f6f6e;"/>
              <path d="M53.8,41.74h.33v2.04h1.17v-2.04h.33v2.03h.31v.81h-.33v-.56h-1.81v-2.29Z" style="fill: #6f6f6e;"/>
              <path d="M57.85,41.74h.33v2.29h-.33v-1.74h0l-1.16,1.74h-.33v-2.29h.33v1.74h.01l1.16-1.74Z" style="fill: #6f6f6e;"/>
              <path d="M58.87,44.02h-.35l.57-1.04c-.16-.05-.27-.13-.36-.23-.08-.1-.12-.22-.12-.36,0-.21,.08-.37,.23-.48s.36-.17,.62-.17h.77v2.29h-.33v-.96h-.53l-.5,.96Zm1.04-2.04h-.44c-.17,0-.3,.04-.39,.11s-.13,.17-.13,.3,.04,.23,.13,.31,.22,.12,.39,.12h.45v-.84Z" style="fill: #6f6f6e;"/>
              <path d="M63.39,44.02h-.33v-2.04h-1.17v2.04h-.33v-2.29h1.82v2.29Z" style="fill: #6f6f6e;"/>
              <path d="M65.79,43.08c0,.28-.09,.51-.27,.7-.18,.18-.42,.28-.71,.28s-.51-.09-.69-.28c-.18-.18-.26-.42-.26-.7v-.41c0-.28,.09-.51,.26-.7,.18-.19,.4-.28,.69-.28s.53,.09,.71,.28,.27,.42,.27,.7v.41Zm-.33-.41c0-.21-.06-.38-.18-.51-.12-.13-.28-.2-.48-.2-.19,0-.34,.07-.45,.2s-.17,.31-.17,.51v.41c0,.21,.06,.38,.17,.52s.26,.2,.45,.2c.2,0,.36-.07,.48-.2s.18-.31,.18-.52v-.41Z" style="fill: #6f6f6e;"/>
              <path d="M67.42,43.11v.92h-.33v-2.29h.92c.26,0,.46,.06,.6,.19,.14,.13,.21,.29,.21,.5s-.07,.37-.21,.5c-.14,.12-.34,.19-.6,.19h-.59Zm0-.24h.59c.16,0,.28-.04,.37-.12,.08-.08,.12-.19,.12-.31s-.04-.23-.12-.32-.2-.13-.36-.13h-.59v.88Z" style="fill: #6f6f6e;"/>
              <path d="M70.26,43.43h-.91l-.21,.59h-.33l.87-2.29h.28l.85,2.29h-.33l-.21-.59Zm-.81-.26h.72l-.35-.98h0l-.36,.98Z" style="fill: #6f6f6e;"/>
              <path d="M72.91,42.36c0,.11-.04,.2-.11,.29-.08,.09-.18,.16-.31,.21,.15,.04,.26,.11,.34,.2,.08,.09,.12,.2,.12,.33,0,.21-.09,.37-.26,.49-.18,.12-.41,.18-.69,.18-.25,0-.46-.06-.64-.17-.18-.11-.26-.28-.26-.49h.31c0,.11,.05,.21,.16,.29,.11,.08,.25,.12,.42,.12,.2,0,.35-.04,.46-.12,.11-.08,.17-.18,.17-.31,0-.14-.05-.24-.15-.31-.1-.07-.25-.1-.45-.1h-.3v-.24h.3c.19,0,.33-.03,.43-.1,.09-.07,.14-.16,.14-.28s-.05-.21-.15-.29c-.1-.08-.25-.11-.44-.11-.16,0-.29,.04-.39,.11-.11,.07-.16,.17-.16,.28h-.31c0-.19,.07-.34,.24-.46,.17-.12,.38-.17,.62-.17,.28,0,.51,.06,.67,.17,.16,.11,.25,.27,.25,.48Z" style="fill: #6f6f6e;"/>
              <path d="M73.45,44.02v-2.29h.79c.25,0,.45,.05,.59,.15,.14,.1,.21,.26,.21,.46,0,.1-.03,.19-.1,.26s-.15,.14-.25,.18c.16,.02,.28,.09,.37,.19,.09,.11,.14,.24,.14,.38,0,.21-.07,.37-.21,.48-.14,.11-.34,.17-.58,.17h-.95Zm.33-1.31h.53c.12,0,.22-.03,.3-.09,.08-.06,.11-.15,.11-.26,0-.12-.04-.22-.12-.28s-.2-.09-.35-.09h-.46v.73Zm0,.24v.83h.63c.15,0,.26-.03,.35-.1,.08-.07,.12-.17,.12-.3s-.04-.23-.13-.31c-.08-.08-.2-.12-.34-.12h-.63Z" style="fill: #6f6f6e;"/>
              <path d="M77.1,41.74h.33v2.29h-.33v-1.74h0l-1.16,1.74h-.33v-2.29h.33v1.74h.01l1.16-1.74Z" style="fill: #6f6f6e;"/>
              <path d="M79.62,41.98h-.79v2.04h-.33v-2.04h-.78v-.24h1.9v.24Z" style="fill: #6f6f6e;"/>
              <path d="M81.46,41.74h.33v2.29h-.33v-1.74h0l-1.16,1.74h-.33v-2.29h.33v1.74h.01l1.16-1.74Z" style="fill: #6f6f6e;"/>
              <path d="M84.97,43.08c0,.28-.09,.51-.27,.7-.18,.18-.42,.28-.71,.28s-.51-.09-.69-.28c-.18-.18-.26-.42-.26-.7v-.05h-.34v.99h-.33v-2.29h.33v1.05h.34v-.11c0-.28,.09-.51,.26-.7,.18-.19,.4-.28,.69-.28s.53,.09,.71,.28,.27,.42,.27,.7v.41Zm-.33-.41c0-.21-.06-.38-.18-.51-.12-.13-.28-.2-.48-.2-.19,0-.34,.07-.45,.2s-.17,.31-.17,.51v.41c0,.21,.06,.38,.17,.52s.26,.2,.45,.2c.2,0,.36-.07,.48-.2s.18-.31,.18-.52v-.41Z" style="fill: #6f6f6e;"/>
              <path d="M38,45.6h.33v2.04h1.17v-2.04h.33v2.03h.31v.81h-.33v-.56h-1.81v-2.29Z" style="fill: #6f6f6e;"/>
              <path d="M42.05,45.6h.33v2.29h-.33v-1.74h0l-1.16,1.74h-.33v-2.29h.33v1.74h.01l1.16-1.74Z" style="fill: #6f6f6e;"/>
              <path d="M44,45.95c.25,0,.46,.08,.63,.23,.17,.15,.25,.34,.25,.56s-.08,.42-.25,.57c-.17,.15-.38,.23-.63,.23v.33h-.33v-.33c-.26,0-.47-.08-.64-.23-.17-.15-.25-.34-.25-.57s.08-.42,.25-.57c.17-.15,.38-.23,.64-.23v-.35h.33v.36Zm-.89,.8c0,.17,.05,.3,.15,.4,.1,.1,.24,.15,.41,.15h0v-1.09h0c-.18,0-.31,.04-.41,.14-.1,.1-.15,.23-.15,.4Zm1.46,0c0-.17-.05-.3-.15-.4-.1-.1-.23-.15-.41-.15h-.01v1.09h.01c.17,0,.31-.04,.41-.14,.1-.1,.15-.23,.15-.4Z" style="fill: #6f6f6e;"/>
              <path d="M45.63,46.96v.92h-.33v-2.29h.92c.26,0,.46,.06,.6,.19,.14,.13,.21,.29,.21,.5s-.07,.37-.21,.5c-.14,.12-.34,.19-.6,.19h-.59Zm0-.24h.59c.16,0,.28-.04,.37-.12,.08-.08,.12-.19,.12-.31s-.04-.23-.12-.32-.2-.13-.36-.13h-.59v.88Z" style="fill: #6f6f6e;"/>
              <path d="M49.3,46.94c0,.28-.09,.51-.27,.7-.18,.18-.42,.28-.71,.28s-.51-.09-.69-.28c-.18-.18-.26-.42-.26-.7v-.41c0-.28,.09-.51,.26-.7,.18-.19,.4-.28,.69-.28s.53,.09,.71,.28,.27,.42,.27,.7v.41Zm-.33-.41c0-.21-.06-.38-.18-.51-.12-.13-.28-.2-.48-.2-.19,0-.34,.07-.45,.2s-.17,.31-.17,.51v.41c0,.21,.06,.38,.17,.52s.26,.2,.45,.2c.2,0,.36-.07,.48-.2s.18-.31,.18-.52v-.41Z" style="fill: #6f6f6e;"/>
              <path d="M49.77,47.88v-2.29h.79c.25,0,.45,.05,.59,.15,.14,.1,.21,.26,.21,.46,0,.1-.03,.19-.1,.26s-.15,.14-.25,.18c.16,.02,.28,.09,.37,.19,.09,.11,.14,.24,.14,.38,0,.21-.07,.37-.21,.48-.14,.11-.34,.17-.58,.17h-.95Zm.33-1.31h.53c.12,0,.22-.03,.3-.09,.08-.06,.11-.15,.11-.26,0-.12-.04-.22-.12-.28s-.2-.09-.35-.09h-.46v.73Zm0,.24v.83h.63c.15,0,.26-.03,.35-.1,.08-.07,.12-.17,.12-.3s-.04-.23-.13-.31c-.08-.08-.2-.12-.34-.12h-.63Z" style="fill: #6f6f6e;"/>
              <path d="M52.23,46.5h.59c.26,0,.46,.06,.6,.19,.14,.12,.21,.29,.21,.5s-.07,.38-.21,.5c-.14,.13-.34,.19-.6,.19h-.92v-2.29h.33v.9Zm0,.24v.9h.59c.16,0,.28-.04,.37-.13,.08-.09,.12-.2,.12-.33s-.04-.23-.12-.31c-.08-.08-.2-.13-.37-.13h-.59Zm2.03,1.14h-.33v-2.29h.33v2.29Z" style="fill: #6f6f6e;"/>
              <path d="M55.6,46.49l.56-.89h.39l-.76,1.13,.78,1.15h-.39l-.58-.91-.58,.91h-.39l.78-1.15-.76-1.13h.39l.56,.89Z" style="fill: #6f6f6e;"/>
              <path d="M59.47,45.84h-.79v2.04h-.33v-2.04h-.78v-.24h1.9v.24Z" style="fill: #6f6f6e;"/>
              <path d="M61.13,46.82h-.99v.82h1.16v.24h-1.48v-2.29h1.46v.24h-1.14v.74h.99v.24Z" style="fill: #6f6f6e;"/>
              <path d="M62.47,46.49l.56-.89h.39l-.76,1.13,.78,1.15h-.39l-.58-.91-.58,.91h-.39l.78-1.15-.76-1.13h.39l.56,.89Z" style="fill: #6f6f6e;"/>
              <path d="M65.64,47.88h-.33v-1.01h-1.17v1.01h-.33v-2.29h.33v1.03h1.17v-1.03h.33v2.29Z" style="fill: #6f6f6e;"/>
              <path d="M68.04,46.94c0,.28-.09,.51-.27,.7-.18,.18-.42,.28-.71,.28s-.51-.09-.69-.28c-.18-.18-.26-.42-.26-.7v-.41c0-.28,.09-.51,.26-.7,.18-.19,.4-.28,.69-.28s.53,.09,.71,.28,.27,.42,.27,.7v.41Zm-.33-.41c0-.21-.06-.38-.18-.51-.12-.13-.28-.2-.48-.2-.19,0-.34,.07-.45,.2s-.17,.31-.17,.51v.41c0,.21,.06,.38,.17,.52s.26,.2,.45,.2c.2,0,.36-.07,.48-.2s.18-.31,.18-.52v-.41Z" style="fill: #6f6f6e;"/>
              <path d="M70.28,45.6v2.29h-.33v-2.04h-.87v.83c0,.42-.06,.72-.17,.92-.11,.19-.3,.29-.57,.29h-.09v-.24h.07c.15,0,.26-.07,.33-.22,.07-.15,.1-.4,.1-.74v-1.08h1.52Z" style="fill: #6f6f6e;"/>
              <path d="M72.68,46.94c0,.28-.09,.51-.27,.7-.18,.18-.42,.28-.71,.28s-.51-.09-.69-.28c-.18-.18-.26-.42-.26-.7v-.41c0-.28,.09-.51,.26-.7,.18-.19,.4-.28,.69-.28s.53,.09,.71,.28,.27,.42,.27,.7v.41Zm-.33-.41c0-.21-.06-.38-.18-.51-.12-.13-.28-.2-.48-.2-.19,0-.34,.07-.45,.2s-.17,.31-.17,.51v.41c0,.21,.06,.38,.17,.52s.26,.2,.45,.2c.2,0,.36-.07,.48-.2s.18-.31,.18-.52v-.41Z" style="fill: #6f6f6e;"/>
              <path d="M74.61,45.84h-1.15v2.04h-.33v-2.29h1.48v.24Z" style="fill: #6f6f6e;"/>
              <path d="M76.5,45.6h.33v2.29h-.33v-1.74h0l-1.16,1.74h-.33v-2.29h.33v1.74h.01l1.16-1.74Z" style="fill: #6f6f6e;"/>
              <path d="M78.88,45.6h.33v2.29h-.33v-1.74h0l-1.16,1.74h-.33v-2.29h.33v1.74h.01l1.16-1.74Zm-.09-.65h0c0,.13-.04,.23-.13,.31s-.21,.11-.36,.11-.27-.04-.36-.11-.13-.18-.13-.3h.25c0,.06,.02,.12,.06,.16s.1,.06,.18,.06,.14-.02,.18-.07c.04-.04,.06-.1,.06-.17h.25Z" style="fill: #6f6f6e;"/>
              <path d="M82.28,45.84h-.79v2.04h-.33v-2.04h-.78v-.24h1.9v.24Z" style="fill: #6f6f6e;"/>
              <path d="M82.95,46.96v.92h-.33v-2.29h.92c.26,0,.46,.06,.6,.19,.14,.13,.21,.29,.21,.5s-.07,.37-.21,.5c-.14,.12-.34,.19-.6,.19h-.59Zm0-.24h.59c.16,0,.28-.04,.37-.12,.08-.08,.12-.19,.12-.31s-.04-.23-.12-.32-.2-.13-.36-.13h-.59v.88Z" style="fill: #6f6f6e;"/>
              <path d="M85.79,47.29h-.91l-.21,.59h-.33l.87-2.29h.28l.85,2.29h-.33l-.21-.59Zm-.81-.26h.72l-.35-.98h0l-.36,.98Z" style="fill: #6f6f6e;"/>
              <path d="M88.51,47.88h-.33v-1.01h-1.17v1.01h-.33v-2.29h.33v1.03h1.17v-1.03h.33v2.29Z" style="fill: #6f6f6e;"/>
              <path d="M90.79,47.15h0c0,.22-.08,.4-.24,.55-.16,.14-.38,.22-.65,.22s-.49-.09-.67-.27-.26-.42-.26-.7v-.41c0-.28,.09-.51,.26-.7,.17-.18,.39-.28,.67-.28s.49,.07,.65,.21c.16,.14,.24,.32,.23,.55h-.32c0-.15-.05-.28-.15-.37s-.24-.14-.42-.14-.33,.07-.43,.21c-.11,.14-.16,.31-.16,.52v.41c0,.21,.05,.38,.16,.52,.11,.14,.25,.21,.43,.21s.32-.05,.42-.14c.1-.09,.15-.22,.15-.38h.31Z" style="fill: #6f6f6e;"/>
              <path d="M93.04,47.88h-.33v-2.04h-1.17v2.04h-.33v-2.29h1.82v2.29Z" style="fill: #6f6f6e;"/>
              <path d="M95.43,46.94c0,.28-.09,.51-.27,.7-.18,.18-.42,.28-.71,.28s-.51-.09-.69-.28c-.18-.18-.26-.42-.26-.7v-.41c0-.28,.09-.51,.26-.7,.18-.19,.4-.28,.69-.28s.53,.09,.71,.28,.27,.42,.27,.7v.41Zm-.33-.41c0-.21-.06-.38-.18-.51-.12-.13-.28-.2-.48-.2-.19,0-.34,.07-.45,.2s-.17,.31-.17,.51v.41c0,.21,.06,.38,.17,.52s.26,.2,.45,.2c.2,0,.36-.07,.48-.2s.18-.31,.18-.52v-.41Z" style="fill: #6f6f6e;"/>
              <path d="M96.23,46.96v.92h-.33v-2.29h.92c.26,0,.46,.06,.6,.19,.14,.13,.21,.29,.21,.5s-.07,.37-.21,.5c-.14,.12-.34,.19-.6,.19h-.59Zm0-.24h.59c.16,0,.28-.04,.37-.12,.08-.08,.12-.19,.12-.31s-.04-.23-.12-.32-.2-.13-.36-.13h-.59v.88Z" style="fill: #6f6f6e;"/>
              <path d="M99.74,45.84h-.79v2.04h-.33v-2.04h-.78v-.24h1.9v.24Z" style="fill: #6f6f6e;"/>
              <path d="M101.19,47.29h-.91l-.21,.59h-.33l.87-2.29h.28l.85,2.29h-.33l-.21-.59Zm-.81-.26h.72l-.35-.98h0l-.36,.98Z" style="fill: #6f6f6e;"/>
            </g>
          </g>
        </g>
      </g>
    </g>
  </g>
</svg>